<svg viewBox="0 0 200 200" xmlns="http://www.w3.org/2000/svg">
  <path fill="#B4BEFE" d="M34.6,-61.2C46.5,-53.1,58.8,-47.1,69,-37.2C79.3,-27.3,87.5,-13.7,87.4,0C87.4,13.6,79,27.2,71.1,41.2C63.2,55.1,55.8,69.5,44.1,73.8C32.3,78,16.1,72.1,0.3,71.6C-15.6,71.1,-31.1,75.9,-41.1,70.7C-51.1,65.4,-55.6,50,-63.9,36.6C-72.3,23.1,-84.5,11.6,-88.2,-2.1C-91.8,-15.8,-87,-31.6,-77.3,-42.8C-67.6,-53.9,-53.1,-60.4,-39.4,-67.4C-25.7,-74.4,-12.9,-81.8,-0.7,-80.6C11.4,-79.3,22.8,-69.2,34.6,-61.2Z" transform="translate(100 100)" />
</svg>
