<!--?xml version="1.0" standalone="no"?-->
              <svg id="sw-js-blob-svg" viewBox="0 0 100 100" xmlns="http://www.w3.org/2000/svg" version="1.1">
                    <defs> 
                        <linearGradient id="sw-gradient" x1="0" x2="1" y1="1" y2="0">
                            <stop id="stop1" stop-color="rgba(169, 177, 214, 1)" offset="0%"></stop>
                            <stop id="stop2" stop-color="rgba(26, 27, 38, 1)" offset="100%"></stop>
                        </linearGradient>
                    </defs>
                <path fill="url(#sw-gradient)" d="M17.6,-29.6C23.2,-27.3,28.2,-23.3,30.6,-18C33,-12.8,32.7,-6.4,33.2,0.3C33.8,7,35.1,14,33.3,20.4C31.6,26.8,26.9,32.6,20.9,33.4C14.8,34.1,7.4,29.7,0.3,29.2C-6.8,28.6,-13.5,31.9,-17.2,29.8C-20.8,27.6,-21.2,20.1,-20,14.2C-18.8,8.4,-15.9,4.2,-17,-0.6C-18.1,-5.4,-23.2,-10.9,-24.1,-16.2C-24.9,-21.5,-21.6,-26.6,-16.9,-29.3C-12.2,-32.1,-6.1,-32.4,0,-32.3C6,-32.3,12.1,-31.8,17.6,-29.6Z" width="100%" height="100%" transform="translate(50 50)" style="transition: all 0.3s ease 0s;" stroke-width="0" stroke="url(#sw-gradient)"></path>
              </svg>
